<?xml version="1.0" encoding="utf-8"?>
<!-- Generator: Adobe Illustrator 21.0.0, SVG Export Plug-In . SVG Version: 6.00 Build 0)  -->
<svg version="1.1" id="Layer_1" xmlns="http://www.w3.org/2000/svg" xmlns:xlink="http://www.w3.org/1999/xlink" x="0px" y="0px"
	 viewBox="0 0 100 100" style="enable-background:new 0 0 100 100;" xml:space="preserve">
<style type="text/css">
	.st0{fill:#FFFFFF;}
</style>
<path class="st0" d="M94.9,44.1c-1.2-9.2-9.6-15.6-18.8-14.4l-11.7,1.5l-1.5-11.7c-1.2-9.2-9.6-15.6-18.8-14.4
	c-9.2,1.2-15.6,9.6-14.4,18.8l1.5,11.7l-11.7,1.5c-9.2,1.2-15.6,9.6-14.4,18.8c1.2,9.2,9.6,15.6,18.8,14.4l11.7-1.5
	c0.1,0,5.6,1.1,12.1-0.1C56,67.2,62,63,65.6,56.2L63.7,55l1.3-2l5.4,3.5l-1.3,2l-1.5-1C61,69.7,48.5,71.6,41.1,71.6
	c-2.3,0-4.2-0.2-5.2-0.3l1.2,9.2c1.2,9.2,9.6,15.6,18.8,14.4c9.2-1.2,15.6-9.6,14.4-18.8l-1.5-11.7l11.7-1.5
	C89.6,61.6,96.1,53.2,94.9,44.1"/>
</svg>
