<?xml version="1.0" encoding="utf-8"?>
<!-- Generator: Adobe Illustrator 21.0.0, SVG Export Plug-In . SVG Version: 6.00 Build 0)  -->
<svg version="1.1" id="Layer_1" xmlns="http://www.w3.org/2000/svg" xmlns:xlink="http://www.w3.org/1999/xlink" x="0px" y="0px"
	 viewBox="0 0 327.2 327.2" style="enable-background:new 0 0 327.2 327.2;" xml:space="preserve">
<style type="text/css">
	.st0{fill:#EDEDED;}
	.st1{fill:none;stroke:#D6D6D6;stroke-width:0.252;stroke-miterlimit:10;}
	.st2{fill:none;stroke:#BABABA;stroke-width:0.252;stroke-miterlimit:10;}
	.st3{fill:#1E1E1E;}
</style>
<rect class="st0" width="327.2" height="327.2"/>
<g>
	<line class="st1" x1="-3" y1="102.1" x2="330.2" y2="102.1"/>
	<line class="st1" x1="-3" y1="115.6" x2="330.2" y2="115.6"/>
	<line class="st1" x1="-3" y1="114.5" x2="330.2" y2="114.5"/>
	<line class="st1" x1="-3" y1="136.1" x2="330.2" y2="136.1"/>
	<line class="st1" x1="-3" y1="181.4" x2="330.2" y2="181.4"/>
	<line class="st1" x1="-3" y1="166.6" x2="330.2" y2="166.6"/>
	<line class="st1" x1="-3" y1="161.2" x2="330.2" y2="161.2"/>
	<line class="st1" x1="-4.4" y1="159.7" x2="328.8" y2="159.7"/>
	<line class="st1" x1="-3" y1="130.4" x2="330.2" y2="130.4"/>
	<line class="st1" x1="-3" y1="110.1" x2="330.2" y2="110.1"/>
	<line class="st1" x1="-3" y1="100.9" x2="330.2" y2="100.9"/>
	<line class="st1" x1="65.5" y1="330.2" x2="65.5" y2="-3"/>
	<line class="st1" x1="145.8" y1="330.2" x2="145.8" y2="-3"/>
	<line class="st1" x1="169" y1="330.2" x2="169" y2="-3"/>
	<line class="st1" x1="193.8" y1="330.2" x2="193.8" y2="-3"/>
	<line class="st1" x1="190.9" y1="330.2" x2="190.9" y2="-3"/>
	<line class="st1" x1="133" y1="330.2" x2="133" y2="-3"/>
	<line class="st1" x1="176.7" y1="330.2" x2="176.7" y2="-3"/>
	<line class="st1" x1="213.6" y1="330.2" x2="213.6" y2="-3"/>
	<line class="st1" x1="261.7" y1="330.2" x2="261.7" y2="-3"/>
	<line class="st1" x1="235.3" y1="330.2" x2="235.3" y2="-3"/>
	<line class="st1" x1="116" y1="330.2" x2="116" y2="-3"/>
	<line class="st1" x1="130.7" y1="330.2" x2="130.7" y2="-3"/>
	<line class="st1" x1="80.5" y1="330.2" x2="80.5" y2="-3"/>
	<line class="st2" x1="-2" y1="206.2" x2="298.7" y2="-2"/>
	<line class="st2" x1="-2.8" y1="239" x2="329.2" y2="9.1"/>
	<line class="st2" x1="-2.1" y1="260.1" x2="314.8" y2="-5.7"/>
	<line class="st2" x1="-2" y1="294.5" x2="329.2" y2="16.8"/>
	<line class="st2" x1="55.9" y1="333.9" x2="298" y2="-24.2"/>
	<line class="st2" x1="76.3" y1="351" x2="318.4" y2="-7.1"/>
</g>
<path class="st3" d="M261.2,102.6v25.9V155v25.9h-25.4V155v-26.4v-25.9H261.2z M261.7,102.1h-26.5v26.5V155v26.4h26.5V155v-26.4
	V102.1z"/>
<path class="st3" d="M213.6,101.6l21.1,14.3l-14.5,21.5l-14.8,21.9l-14.5,21.5l-21.1-14.3l14.5-21.5l14.8-21.9L213.6,101.6z
	 M213.5,100.9l-14.8,21.9l-14.8,21.9L169,166.6l21.9,14.8l14.8-21.9l14.8-21.9l14.8-21.9L213.5,100.9z"/>
<path class="st3" d="M176.7,110.8l16.4,19.5L173.2,147L153,164l-19.9,16.7l-16.4-19.5l19.9-16.7l20.2-17L176.7,110.8z M176.7,110.1
	l-20.2,17l-20.2,17l-20.2,17l17,20.2l20.2-17l20.2-17l20.2-17L176.7,110.1z"/>
<path class="st3" d="M130.6,115.2l14.5,20.9l-21.3,14.8L102,165.9l-21.3,14.8l-14.5-20.9L87.5,145l21.7-15.1L130.6,115.2z
	 M130.7,114.5L109,129.5l-21.7,15.1l-21.7,15.1l15.1,21.7l21.7-15.1l21.7-15.1l21.7-15.1L130.7,114.5z"/>
</svg>
