<?xml version="1.0" encoding="utf-8"?>
<!-- Generator: Adobe Illustrator 21.0.0, SVG Export Plug-In . SVG Version: 6.00 Build 0)  -->
<svg version="1.1" id="Layer_1" xmlns="http://www.w3.org/2000/svg" xmlns:xlink="http://www.w3.org/1999/xlink" x="0px" y="0px"
	 viewBox="0 0 100 10.8" style="enable-background:new 0 0 100 10.8;" xml:space="preserve">
<style type="text/css">
	.st0{clip-path:url(#SVGID_2_);}
	.st1{clip-path:url(#SVGID_4_);fill:#A89E8B;}
	.st2{clip-path:url(#SVGID_6_);fill:#A89E8B;}
	.st3{clip-path:url(#SVGID_2_);fill:#A89E8B;}
	.st4{clip-path:url(#SVGID_8_);fill:#A89E8B;}
	.st5{clip-path:url(#SVGID_10_);fill:#A89E8B;}
	.st6{clip-path:url(#SVGID_12_);fill:#A89E8B;}
	.st7{clip-path:url(#SVGID_14_);fill:#A89E8B;}
	.st8{clip-path:url(#SVGID_16_);fill:#A89E8B;}
	.st9{clip-path:url(#SVGID_18_);fill:#A89E8B;}
	.st10{clip-path:url(#SVGID_20_);fill:#A89E8B;}
	.st11{clip-path:url(#SVGID_22_);fill:#A89E8B;}
	.st12{clip-path:url(#SVGID_24_);fill:#A89E8B;}
	.st13{clip-path:url(#SVGID_26_);fill:#A89E8B;}
	.st14{clip-path:url(#SVGID_28_);fill:#A89E8B;}
	.st15{clip-path:url(#SVGID_30_);fill:#A89E8B;}
	.st16{clip-path:url(#SVGID_32_);fill:#A89E8B;}
	.st17{clip-path:url(#SVGID_34_);fill:#A89E8B;}
	.st18{clip-path:url(#SVGID_36_);fill:#A89E8B;}
	.st19{clip-path:url(#SVGID_38_);fill:#A89E8B;}
	.st20{clip-path:url(#SVGID_40_);fill:#A89E8B;}
	.st21{clip-path:url(#SVGID_42_);fill:#A89E8B;}
	.st22{clip-path:url(#SVGID_44_);fill:#A89E8B;}
	.st23{clip-path:url(#SVGID_46_);fill:#A89E8B;}
	.st24{clip-path:url(#SVGID_48_);fill:#A89E8B;}
	.st25{clip-path:url(#SVGID_50_);fill:#A89E8B;}
	.st26{clip-path:url(#SVGID_52_);fill:#A89E8B;}
	.st27{clip-path:url(#SVGID_54_);fill:#A89E8B;}
	.st28{clip-path:url(#SVGID_56_);fill:#A89E8B;}
	.st29{clip-path:url(#SVGID_58_);fill:#A89E8B;}
	.st30{clip-path:url(#SVGID_60_);fill:#A89E8B;}
	.st31{clip-path:url(#SVGID_62_);fill:#A89E8B;}
	.st32{clip-path:url(#SVGID_64_);fill:#A89E8B;}
	.st33{clip-path:url(#SVGID_66_);fill:#A89E8B;}
	.st34{clip-path:url(#SVGID_68_);fill:#A89E8B;}
	.st35{clip-path:url(#SVGID_70_);fill:#A89E8B;}
	.st36{clip-path:url(#SVGID_72_);fill:#A89E8B;}
	.st37{clip-path:url(#SVGID_74_);fill:#A89E8B;}
	.st38{clip-path:url(#SVGID_76_);fill:#A89E8B;}
	.st39{clip-path:url(#SVGID_78_);fill:#A89E8B;}
	.st40{clip-path:url(#SVGID_80_);fill:#A89E8B;}
	.st41{clip-path:url(#SVGID_82_);fill:#A89E8B;}
	.st42{clip-path:url(#SVGID_84_);fill:#A89E8B;}
	.st43{clip-path:url(#SVGID_86_);fill:#A89E8B;}
	.st44{clip-path:url(#SVGID_88_);fill:#A89E8B;}
</style>
<g>
	<defs>
		<rect id="SVGID_1_" width="100" height="10.8"/>
	</defs>
	<clipPath id="SVGID_2_">
		<use xlink:href="#SVGID_1_"  style="overflow:visible;"/>
	</clipPath>
	<g class="st0">
		<defs>
			<rect id="SVGID_3_" x="-14.5" width="114.2" height="10.8"/>
		</defs>
		<clipPath id="SVGID_4_">
			<use xlink:href="#SVGID_3_"  style="overflow:visible;"/>
		</clipPath>
		
			<rect x="-63.1" y="1.6" transform="matrix(0.7436 -0.6686 0.6686 0.7436 -8.0005 -17.1429)" class="st1" width="73.5" height="0.6"/>
		<path class="st1" d="M-53.5,26.9l-0.6-0.7l0.1-0.1L0.8-23.1l0.6,0.7l-0.1,0.1L-53.5,26.9z M-53.7,26.2l0.2,0.3L1-22.5l-0.2-0.3
			L-53.7,26.2z"/>
		
			<rect x="-60.2" y="1.6" transform="matrix(0.7436 -0.6686 0.6686 0.7436 -7.2535 -15.195)" class="st1" width="73.5" height="0.6"/>
		<path class="st1" d="M-50.6,26.9l-0.6-0.7l0.1-0.1L3.7-23.1l0.6,0.7l-0.1,0.1L-50.6,26.9z M-50.8,26.2l0.2,0.3l54.5-49l-0.2-0.3
			L-50.8,26.2z"/>
		
			<rect x="-57.3" y="1.6" transform="matrix(0.7436 -0.6686 0.6686 0.7436 -6.5066 -13.2472)" class="st1" width="73.5" height="0.6"/>
		<path class="st1" d="M-47.7,26.9l-0.6-0.7l0.1-0.1L6.6-23.1l0.6,0.7l-0.1,0.1L-47.7,26.9z M-47.9,26.2l0.2,0.3l54.5-49l-0.2-0.3
			L-47.9,26.2z"/>
		
			<rect x="-54.4" y="1.6" transform="matrix(0.7436 -0.6686 0.6686 0.7436 -5.7597 -11.2995)" class="st1" width="73.5" height="0.6"/>
		<path class="st1" d="M-44.7,26.9l-0.6-0.7l0.1-0.1L9.5-23.1l0.6,0.7L10-22.4L-44.7,26.9z M-45,26.2l0.2,0.3l54.5-49l-0.2-0.3
			L-45,26.2z"/>
	</g>
	<g class="st0">
		<defs>
			<rect id="SVGID_5_" x="-14.5" width="114.2" height="10.8"/>
		</defs>
		<clipPath id="SVGID_6_">
			<use xlink:href="#SVGID_5_"  style="overflow:visible;"/>
		</clipPath>
		<path class="st2" d="M-41.8,26.9l-0.6-0.7l0.1-0.1l54.8-49.2l0.6,0.7l-0.1,0.1L-41.8,26.9z M-42,26.2l0.2,0.3l54.5-49l-0.2-0.3
			L-42,26.2z"/>
	</g>
	<g class="st0">
		<defs>
			<rect id="SVGID_7_" x="-14.5" width="114.2" height="10.8"/>
		</defs>
		<clipPath id="SVGID_8_">
			<use xlink:href="#SVGID_7_"  style="overflow:visible;"/>
		</clipPath>
		<path class="st4" d="M-38.9,26.9l-0.6-0.7l0.1-0.1l54.8-49.2l0.6,0.7l-0.1,0.1L-38.9,26.9z M-39.1,26.2l0.2,0.3l54.5-49l-0.2-0.3
			L-39.1,26.2z"/>
	</g>
	<g class="st0">
		<defs>
			<rect id="SVGID_9_" x="-14.5" width="114.2" height="10.8"/>
		</defs>
		<clipPath id="SVGID_10_">
			<use xlink:href="#SVGID_9_"  style="overflow:visible;"/>
		</clipPath>
		<path class="st5" d="M-36,26.9l-0.6-0.7l0.1-0.1l54.8-49.2l0.6,0.7l-0.1,0.1L-36,26.9z M-36.2,26.2l0.2,0.3l54.5-49l-0.2-0.3
			L-36.2,26.2z"/>
	</g>
	<g class="st0">
		<defs>
			<rect id="SVGID_11_" x="-14.5" width="114.2" height="10.8"/>
		</defs>
		<clipPath id="SVGID_12_">
			<use xlink:href="#SVGID_11_"  style="overflow:visible;"/>
		</clipPath>
		<path class="st6" d="M-33.1,26.9l-0.6-0.7l0.1-0.1l54.8-49.2l0.6,0.7l-0.1,0.1L-33.1,26.9z M-33.3,26.2l0.2,0.3l54.5-49l-0.2-0.3
			L-33.3,26.2z"/>
	</g>
	<g class="st0">
		<defs>
			<rect id="SVGID_13_" x="-14.5" width="114.2" height="10.8"/>
		</defs>
		<clipPath id="SVGID_14_">
			<use xlink:href="#SVGID_13_"  style="overflow:visible;"/>
		</clipPath>
		<path class="st7" d="M-30.2,26.9l-0.6-0.7l0.1-0.1l54.8-49.2l0.6,0.7l-0.1,0.1L-30.2,26.9z M-30.4,26.2l0.2,0.3l54.5-49l-0.2-0.3
			L-30.4,26.2z"/>
	</g>
	<g class="st0">
		<defs>
			<rect id="SVGID_15_" x="-14.5" width="114.2" height="10.8"/>
		</defs>
		<clipPath id="SVGID_16_">
			<use xlink:href="#SVGID_15_"  style="overflow:visible;"/>
		</clipPath>
		<path class="st8" d="M-27.3,26.9l-0.6-0.7l0.1-0.1L27-23.1l0.6,0.7l-0.1,0.1L-27.3,26.9z M-27.5,26.2l0.2,0.3l54.5-49L27-22.7
			L-27.5,26.2z"/>
	</g>
	<g class="st0">
		<defs>
			<rect id="SVGID_17_" x="-14.5" width="114.2" height="10.8"/>
		</defs>
		<clipPath id="SVGID_18_">
			<use xlink:href="#SVGID_17_"  style="overflow:visible;"/>
		</clipPath>
		<path class="st9" d="M-24.4,26.9l-0.6-0.7l0.1-0.1l54.8-49.2l0.6,0.7l-0.1,0.1L-24.4,26.9z M-24.6,26.2l0.2,0.3l54.5-49l-0.2-0.3
			L-24.6,26.2z"/>
	</g>
	<g class="st0">
		<defs>
			<rect id="SVGID_19_" x="-14.2" width="114.2" height="10.8"/>
		</defs>
		<clipPath id="SVGID_20_">
			<use xlink:href="#SVGID_19_"  style="overflow:visible;"/>
		</clipPath>
		<path class="st10" d="M-21.2,26.9l-0.6-0.7l0.1-0.1l54.8-49.2l0.6,0.7l-0.1,0.1L-21.2,26.9z M-21.4,26.2l0.2,0.3l54.5-49l-0.2-0.3
			L-21.4,26.2z"/>
	</g>
	<g class="st0">
		<defs>
			<rect id="SVGID_21_" x="-14.5" width="114.2" height="10.8"/>
		</defs>
		<clipPath id="SVGID_22_">
			<use xlink:href="#SVGID_21_"  style="overflow:visible;"/>
		</clipPath>
		<path class="st11" d="M-18.5,26.9l-0.6-0.7l0.1-0.1l54.8-49.2l0.6,0.7l-0.1,0.1L-18.5,26.9z M-18.7,26.2l0.2,0.3l54.5-49l-0.2-0.3
			L-18.7,26.2z"/>
	</g>
	<g class="st0">
		<defs>
			<rect id="SVGID_23_" x="-14.5" width="114.2" height="10.8"/>
		</defs>
		<clipPath id="SVGID_24_">
			<use xlink:href="#SVGID_23_"  style="overflow:visible;"/>
		</clipPath>
		<path class="st12" d="M-15.6,26.9l-0.6-0.7l0.1-0.1l54.8-49.2l0.6,0.7l-0.1,0.1L-15.6,26.9z M-15.8,26.2l0.2,0.3l54.5-49l-0.2-0.3
			L-15.8,26.2z"/>
	</g>
	<g class="st0">
		<defs>
			<rect id="SVGID_25_" x="-14.5" width="114.2" height="10.8"/>
		</defs>
		<clipPath id="SVGID_26_">
			<use xlink:href="#SVGID_25_"  style="overflow:visible;"/>
		</clipPath>
		<path class="st13" d="M-12.7,26.9l-0.6-0.7l0.1-0.1l54.8-49.2l0.6,0.7l-0.1,0.1L-12.7,26.9z M-12.9,26.2l0.2,0.3l54.5-49l-0.2-0.3
			L-12.9,26.2z"/>
	</g>
	<g class="st0">
		<defs>
			<rect id="SVGID_27_" x="-14.5" width="114.2" height="10.8"/>
		</defs>
		<clipPath id="SVGID_28_">
			<use xlink:href="#SVGID_27_"  style="overflow:visible;"/>
		</clipPath>
		<path class="st14" d="M-9.8,26.9l-0.6-0.7l0.1-0.1l54.8-49.2l0.6,0.7L45-22.4L-9.8,26.9z M-10,26.2l0.2,0.3l54.5-49l-0.2-0.3
			L-10,26.2z"/>
	</g>
	<g class="st0">
		<defs>
			<rect id="SVGID_29_" x="-14.5" width="114.2" height="10.8"/>
		</defs>
		<clipPath id="SVGID_30_">
			<use xlink:href="#SVGID_29_"  style="overflow:visible;"/>
		</clipPath>
		<path class="st15" d="M-6.9,26.9l-0.6-0.7l0.1-0.1l54.8-49.2l0.6,0.7l-0.1,0.1L-6.9,26.9z M-7.1,26.2l0.2,0.3l54.5-49l-0.2-0.3
			L-7.1,26.2z"/>
	</g>
	<g class="st0">
		<defs>
			<rect id="SVGID_31_" x="-14.5" width="114.2" height="10.8"/>
		</defs>
		<clipPath id="SVGID_32_">
			<use xlink:href="#SVGID_31_"  style="overflow:visible;"/>
		</clipPath>
		<path class="st16" d="M-4,26.9l-0.6-0.7l0.1-0.1l54.8-49.2l0.6,0.7l-0.1,0.1L-4,26.9z M-4.2,26.2l0.2,0.3l54.5-49l-0.2-0.3
			L-4.2,26.2z"/>
	</g>
	<g class="st0">
		<defs>
			<rect id="SVGID_33_" x="-14.5" width="114.2" height="10.8"/>
		</defs>
		<clipPath id="SVGID_34_">
			<use xlink:href="#SVGID_33_"  style="overflow:visible;"/>
		</clipPath>
		<path class="st17" d="M-1.1,26.9l-0.6-0.7l0.1-0.1l54.8-49.2l0.6,0.7l-0.1,0.1L-1.1,26.9z M-1.3,26.2l0.2,0.3l54.5-49l-0.2-0.3
			L-1.3,26.2z"/>
	</g>
	<g class="st0">
		<defs>
			<rect id="SVGID_35_" x="-14.5" width="114.2" height="10.8"/>
		</defs>
		<clipPath id="SVGID_36_">
			<use xlink:href="#SVGID_35_"  style="overflow:visible;"/>
		</clipPath>
		<path class="st18" d="M1.9,26.9l-0.6-0.7l0.1-0.1l54.8-49.2l0.6,0.7l-0.1,0.1L1.9,26.9z M1.7,26.2l0.2,0.3l54.5-49l-0.2-0.3
			L1.7,26.2z"/>
	</g>
	<g class="st0">
		<defs>
			<rect id="SVGID_37_" x="-14.5" width="114.2" height="10.8"/>
		</defs>
		<clipPath id="SVGID_38_">
			<use xlink:href="#SVGID_37_"  style="overflow:visible;"/>
		</clipPath>
		<path class="st19" d="M4.8,26.9l-0.6-0.7l0.1-0.1L59-23.1l0.6,0.7l-0.1,0.1L4.8,26.9z M4.6,26.2l0.2,0.3l54.5-49L59-22.7L4.6,26.2
			z"/>
	</g>
	<g class="st0">
		<defs>
			<rect id="SVGID_39_" x="-14.5" width="114.2" height="10.8"/>
		</defs>
		<clipPath id="SVGID_40_">
			<use xlink:href="#SVGID_39_"  style="overflow:visible;"/>
		</clipPath>
		<path class="st20" d="M7.7,26.9l-0.6-0.7l0.1-0.1L62-23.1l0.6,0.7l-0.1,0.1L7.7,26.9z M7.5,26.2l0.2,0.3l54.5-49l-0.2-0.3
			L7.5,26.2z"/>
	</g>
	<g class="st0">
		<defs>
			<rect id="SVGID_41_" x="-14.5" width="114.2" height="10.8"/>
		</defs>
		<clipPath id="SVGID_42_">
			<use xlink:href="#SVGID_41_"  style="overflow:visible;"/>
		</clipPath>
		<path class="st21" d="M10.6,26.9L10,26.2l0.1-0.1l54.8-49.2l0.6,0.7l-0.1,0.1L10.6,26.9z M10.4,26.2l0.2,0.3l54.5-49l-0.2-0.3
			L10.4,26.2z"/>
	</g>
	<g class="st0">
		<defs>
			<rect id="SVGID_43_" x="-14.5" width="114.2" height="10.8"/>
		</defs>
		<clipPath id="SVGID_44_">
			<use xlink:href="#SVGID_43_"  style="overflow:visible;"/>
		</clipPath>
		<path class="st22" d="M13.5,26.9l-0.6-0.7l0.1-0.1l54.8-49.2l0.6,0.7l-0.1,0.1L13.5,26.9z M13.3,26.2l0.2,0.3l54.5-49l-0.2-0.3
			L13.3,26.2z"/>
	</g>
	<g class="st0">
		<defs>
			<rect id="SVGID_45_" x="-14.5" width="114.2" height="10.8"/>
		</defs>
		<clipPath id="SVGID_46_">
			<use xlink:href="#SVGID_45_"  style="overflow:visible;"/>
		</clipPath>
		<path class="st23" d="M16.4,26.9l-0.6-0.7l0.1-0.1l54.8-49.2l0.6,0.7l-0.1,0.1L16.4,26.9z M16.2,26.2l0.2,0.3l54.5-49l-0.2-0.3
			L16.2,26.2z"/>
	</g>
	<g class="st0">
		<defs>
			<rect id="SVGID_47_" x="-14.5" width="114.2" height="10.8"/>
		</defs>
		<clipPath id="SVGID_48_">
			<use xlink:href="#SVGID_47_"  style="overflow:visible;"/>
		</clipPath>
		<path class="st24" d="M19.3,26.9l-0.6-0.7l0.1-0.1l54.8-49.2l0.6,0.7l-0.1,0.1L19.3,26.9z M19.1,26.2l0.2,0.3l54.5-49l-0.2-0.3
			L19.1,26.2z"/>
	</g>
	<g class="st0">
		<defs>
			<rect id="SVGID_49_" x="-14.5" width="114.2" height="10.8"/>
		</defs>
		<clipPath id="SVGID_50_">
			<use xlink:href="#SVGID_49_"  style="overflow:visible;"/>
		</clipPath>
		<path class="st25" d="M22.3,26.9l-0.6-0.7l0.1-0.1l54.8-49.2l0.6,0.7L77-22.4L22.3,26.9z M22,26.2l0.2,0.3l54.5-49l-0.2-0.3
			L22,26.2z"/>
	</g>
	<g class="st0">
		<defs>
			<rect id="SVGID_51_" x="-14.5" width="114.2" height="10.8"/>
		</defs>
		<clipPath id="SVGID_52_">
			<use xlink:href="#SVGID_51_"  style="overflow:visible;"/>
		</clipPath>
		<path class="st26" d="M25.2,26.9l-0.6-0.7l0.1-0.1l54.8-49.2l0.6,0.7l-0.1,0.1L25.2,26.9z M25,26.2l0.2,0.3l54.5-49l-0.2-0.3
			L25,26.2z"/>
	</g>
	<g class="st0">
		<defs>
			<rect id="SVGID_53_" x="-14.5" width="114.2" height="10.8"/>
		</defs>
		<clipPath id="SVGID_54_">
			<use xlink:href="#SVGID_53_"  style="overflow:visible;"/>
		</clipPath>
		<path class="st27" d="M28.1,26.9l-0.6-0.7l0.1-0.1l54.8-49.2l0.6,0.7l-0.1,0.1L28.1,26.9z M27.9,26.2l0.2,0.3l54.5-49l-0.2-0.3
			L27.9,26.2z"/>
	</g>
	<g class="st0">
		<defs>
			<rect id="SVGID_55_" x="-14.5" width="114.2" height="10.8"/>
		</defs>
		<clipPath id="SVGID_56_">
			<use xlink:href="#SVGID_55_"  style="overflow:visible;"/>
		</clipPath>
		<path class="st28" d="M31,26.9l-0.6-0.7l0.1-0.1l54.8-49.2l0.6,0.7l-0.1,0.1L31,26.9z M30.8,26.2l0.2,0.3l54.5-49l-0.2-0.3
			L30.8,26.2z"/>
	</g>
	<g class="st0">
		<defs>
			<rect id="SVGID_57_" x="-14.5" width="114.2" height="10.8"/>
		</defs>
		<clipPath id="SVGID_58_">
			<use xlink:href="#SVGID_57_"  style="overflow:visible;"/>
		</clipPath>
		<path class="st29" d="M33.9,26.9l-0.6-0.7l0.1-0.1l54.8-49.2l0.6,0.7l-0.1,0.1L33.9,26.9z M33.7,26.2l0.2,0.3l54.5-49l-0.2-0.3
			L33.7,26.2z"/>
	</g>
	<g class="st0">
		<defs>
			<rect id="SVGID_59_" x="-14.5" width="114.2" height="10.8"/>
		</defs>
		<clipPath id="SVGID_60_">
			<use xlink:href="#SVGID_59_"  style="overflow:visible;"/>
		</clipPath>
		<path class="st30" d="M36.8,26.9l-0.6-0.7l0.1-0.1l54.8-49.2l0.6,0.7l-0.1,0.1L36.8,26.9z M36.6,26.2l0.2,0.3l54.5-49l-0.2-0.3
			L36.6,26.2z"/>
	</g>
	<g class="st0">
		<defs>
			<rect id="SVGID_61_" x="-14.5" width="114.2" height="10.8"/>
		</defs>
		<clipPath id="SVGID_62_">
			<use xlink:href="#SVGID_61_"  style="overflow:visible;"/>
		</clipPath>
		<path class="st31" d="M39.7,26.9l-0.6-0.7l0.1-0.1L94-23.1l0.6,0.7l-0.1,0.1L39.7,26.9z M39.5,26.2l0.2,0.3l54.5-49L94-22.7
			L39.5,26.2z"/>
	</g>
	<g class="st0">
		<defs>
			<rect id="SVGID_63_" x="-14.5" width="114.2" height="10.8"/>
		</defs>
		<clipPath id="SVGID_64_">
			<use xlink:href="#SVGID_63_"  style="overflow:visible;"/>
		</clipPath>
		<path class="st32" d="M42.6,26.9l-0.6-0.7l0.1-0.1l54.8-49.2l0.6,0.7l-0.1,0.1L42.6,26.9z M42.4,26.2l0.2,0.3l54.5-49l-0.2-0.3
			L42.4,26.2z"/>
	</g>
	<g class="st0">
		<defs>
			<rect id="SVGID_65_" x="-14.5" width="114.2" height="10.8"/>
		</defs>
		<clipPath id="SVGID_66_">
			<use xlink:href="#SVGID_65_"  style="overflow:visible;"/>
		</clipPath>
		<path class="st33" d="M45.6,26.9L45,26.2l0.1-0.1l54.8-49.2l0.6,0.7l-0.1,0.1L45.6,26.9z M45.4,26.2l0.2,0.3l54.5-49l-0.2-0.3
			L45.4,26.2z"/>
	</g>
	<g class="st0">
		<defs>
			<rect id="SVGID_67_" x="-14.5" width="114.2" height="10.8"/>
		</defs>
		<clipPath id="SVGID_68_">
			<use xlink:href="#SVGID_67_"  style="overflow:visible;"/>
		</clipPath>
		<path class="st34" d="M48.5,26.9l-0.6-0.7l0.1-0.1l54.8-49.2l0.6,0.7l-0.1,0.1L48.5,26.9z M48.3,26.2l0.2,0.3l54.5-49l-0.2-0.3
			L48.3,26.2z"/>
	</g>
	<g class="st0">
		<defs>
			<rect id="SVGID_69_" x="-14.5" width="114.2" height="10.8"/>
		</defs>
		<clipPath id="SVGID_70_">
			<use xlink:href="#SVGID_69_"  style="overflow:visible;"/>
		</clipPath>
		<path class="st35" d="M51.4,26.9l-0.6-0.7l0.1-0.1l54.8-49.2l0.6,0.7l-0.1,0.1L51.4,26.9z M51.2,26.2l0.2,0.3l54.5-49l-0.2-0.3
			L51.2,26.2z"/>
	</g>
	<g class="st0">
		<defs>
			<rect id="SVGID_71_" x="-14.5" width="114.2" height="10.8"/>
		</defs>
		<clipPath id="SVGID_72_">
			<use xlink:href="#SVGID_71_"  style="overflow:visible;"/>
		</clipPath>
		<path class="st36" d="M54.3,26.9l-0.6-0.7l0.1-0.1l54.8-49.2l0.6,0.7l-0.1,0.1L54.3,26.9z M54.1,26.2l0.2,0.3l54.5-49l-0.2-0.3
			L54.1,26.2z"/>
	</g>
	<g class="st0">
		<defs>
			<rect id="SVGID_73_" x="-14.5" width="114.2" height="10.8"/>
		</defs>
		<clipPath id="SVGID_74_">
			<use xlink:href="#SVGID_73_"  style="overflow:visible;"/>
		</clipPath>
		<path class="st37" d="M57.2,26.9l-0.6-0.7l0.1-0.1l54.8-49.2l0.6,0.7l-0.1,0.1L57.2,26.9z M57,26.2l0.2,0.3l54.5-49l-0.2-0.3
			L57,26.2z"/>
	</g>
	<g class="st0">
		<defs>
			<rect id="SVGID_75_" x="-14.5" width="114.2" height="10.8"/>
		</defs>
		<clipPath id="SVGID_76_">
			<use xlink:href="#SVGID_75_"  style="overflow:visible;"/>
		</clipPath>
		<path class="st38" d="M60.1,26.9l-0.6-0.7l0.1-0.1l54.8-49.2l0.6,0.7l-0.1,0.1L60.1,26.9z M59.9,26.2l0.2,0.3l54.5-49l-0.2-0.3
			L59.9,26.2z"/>
	</g>
	<g class="st0">
		<defs>
			<rect id="SVGID_77_" x="-14.5" width="114.2" height="10.8"/>
		</defs>
		<clipPath id="SVGID_78_">
			<use xlink:href="#SVGID_77_"  style="overflow:visible;"/>
		</clipPath>
		<path class="st39" d="M63,26.9l-0.6-0.7l0.1-0.1l54.8-49.2l0.6,0.7l-0.1,0.1L63,26.9z M62.8,26.2l0.2,0.3l54.5-49l-0.2-0.3
			L62.8,26.2z"/>
	</g>
	<g class="st0">
		<defs>
			<rect id="SVGID_79_" x="-14.5" width="114.2" height="10.8"/>
		</defs>
		<clipPath id="SVGID_80_">
			<use xlink:href="#SVGID_79_"  style="overflow:visible;"/>
		</clipPath>
		<path class="st40" d="M66,26.9l-0.6-0.7l0.1-0.1l54.8-49.2l0.6,0.7l-0.1,0.1L66,26.9z M65.7,26.2l0.2,0.3l54.5-49l-0.2-0.3
			L65.7,26.2z"/>
	</g>
	<g class="st0">
		<defs>
			<rect id="SVGID_81_" x="-14.5" width="114.2" height="10.8"/>
		</defs>
		<clipPath id="SVGID_82_">
			<use xlink:href="#SVGID_81_"  style="overflow:visible;"/>
		</clipPath>
		<path class="st41" d="M68.9,26.9l-0.6-0.7l0.1-0.1l54.8-49.2l0.6,0.7l-0.1,0.1L68.9,26.9z M68.7,26.2l0.2,0.3l54.5-49l-0.2-0.3
			L68.7,26.2z"/>
	</g>
	<g class="st0">
		<defs>
			<rect id="SVGID_83_" x="-14.5" width="114.2" height="10.8"/>
		</defs>
		<clipPath id="SVGID_84_">
			<use xlink:href="#SVGID_83_"  style="overflow:visible;"/>
		</clipPath>
		<path class="st42" d="M71.8,26.9l-0.6-0.7l0.1-0.1L126-23.1l0.6,0.7l-0.1,0.1L71.8,26.9z M71.6,26.2l0.2,0.3l54.5-49l-0.2-0.3
			L71.6,26.2z"/>
	</g>
	<g class="st0">
		<defs>
			<rect id="SVGID_85_" x="-14.5" width="114.2" height="10.8"/>
		</defs>
		<clipPath id="SVGID_86_">
			<use xlink:href="#SVGID_85_"  style="overflow:visible;"/>
		</clipPath>
		<path class="st43" d="M74.7,26.9l-0.6-0.7l0.1-0.1L129-23.1l0.6,0.7l-0.1,0.1L74.7,26.9z M74.5,26.2l0.2,0.3l54.5-49l-0.2-0.3
			L74.5,26.2z"/>
	</g>
	<g class="st0">
		<defs>
			<rect id="SVGID_87_" x="-14.5" width="114.2" height="10.8"/>
		</defs>
		<clipPath id="SVGID_88_">
			<use xlink:href="#SVGID_87_"  style="overflow:visible;"/>
		</clipPath>
		<path class="st44" d="M77.6,26.9L77,26.2l0.1-0.1l54.8-49.2l0.6,0.7l-0.1,0.1L77.6,26.9z M77.4,26.2l0.2,0.3l54.5-49l-0.2-0.3
			L77.4,26.2z"/>
	</g>
	<path class="st3" d="M80.5,26.9l-0.6-0.7l0.1-0.1l54.8-49.2l0.6,0.7l-0.1,0.1L80.5,26.9z M80.3,26.2l0.2,0.3l54.5-49l-0.2-0.3
		L80.3,26.2z"/>
	<polygon class="st0" points="83.4,26.7 83,26.2 137.7,-22.9 138.1,-22.5 	"/>
	<path class="st0" d="M83.4,26.9l-0.6-0.7l0.1-0.1l54.8-49.2l0.6,0.7l-0.1,0.1L83.4,26.9z M83.2,26.2l0.2,0.3l54.5-49l-0.2-0.3
		L83.2,26.2z"/>
	<rect x="76.7" y="1.6" transform="matrix(0.7445 -0.6676 0.6676 0.7445 27.7534 76.2384)" class="st0" width="73.5" height="0.6"/>
	<path class="st0" d="M86.3,26.9l-0.6-0.7l0.1-0.1l54.8-49.2l0.6,0.7l-0.1,0.1L86.3,26.9z M86.1,26.2l0.2,0.3l54.5-49l-0.2-0.3
		L86.1,26.2z"/>
	<rect x="79.6" y="1.6" transform="matrix(0.7436 -0.6686 0.6686 0.7436 28.6001 78.3009)" class="st0" width="73.5" height="0.6"/>
	<path class="st0" d="M89.3,26.9l-0.6-0.7l0.1-0.1l54.8-49.2l0.6,0.7l-0.1,0.1L89.3,26.9z M89.1,26.2l0.2,0.3l54.5-49l-0.2-0.3
		L89.1,26.2z"/>
	<rect x="82.6" y="1.6" transform="matrix(0.7436 -0.6686 0.6686 0.7436 29.347 80.2487)" class="st0" width="73.5" height="0.6"/>
	<path class="st0" d="M92.2,26.9l-0.6-0.7l0.1-0.1l54.8-49.2l0.6,0.7l-0.1,0.1L92.2,26.9z M92,26.2l0.2,0.3l54.5-49l-0.2-0.3
		L92,26.2z"/>
	<rect x="85.5" y="1.6" transform="matrix(0.7436 -0.6686 0.6686 0.7436 30.0939 82.1963)" class="st0" width="73.5" height="0.6"/>
	<path class="st0" d="M95.1,26.9l-0.6-0.7l0.1-0.1l54.8-49.2l0.6,0.7l-0.1,0.1L95.1,26.9z M94.9,26.2l0.2,0.3l54.5-49l-0.2-0.3
		L94.9,26.2z"/>
	<rect x="88.4" y="1.6" transform="matrix(0.7436 -0.6686 0.6686 0.7436 30.8409 84.1444)" class="st0" width="73.5" height="0.6"/>
	<path class="st0" d="M98,26.9l-0.6-0.7l0.1-0.1l54.8-49.2l0.6,0.7l-0.1,0.1L98,26.9z M97.8,26.2l0.2,0.3l54.5-49l-0.2-0.3
		L97.8,26.2z"/>
</g>
</svg>
