<?xml version="1.0" encoding="utf-8"?>
<!-- Generator: Adobe Illustrator 21.0.0, SVG Export Plug-In . SVG Version: 6.00 Build 0)  -->
<svg version="1.1" id="Layer_1" xmlns="http://www.w3.org/2000/svg" xmlns:xlink="http://www.w3.org/1999/xlink" x="0px" y="0px"
	 viewBox="0 0 1000 1000" style="enable-background:new 0 0 1000 1000;" xml:space="preserve">
<style type="text/css">
	.st0{fill:none;stroke:#D6D6D6;stroke-width:0.252;stroke-miterlimit:10;}
	.st1{fill:none;stroke:#BABABA;stroke-width:0.252;stroke-miterlimit:10;}
	.st2{opacity:0;}
	.st3{clip-path:url(#SVGID_2_);fill:none;stroke:#727272;stroke-width:0.242;stroke-miterlimit:10;}
	.st4{fill:none;stroke:#B7B7B7;stroke-width:0.252;stroke-miterlimit:10;}
	.st5{fill:none;stroke:#666666;stroke-width:0.252;stroke-miterlimit:10;}
	.st6{fill:none;stroke:#1E1E1E;stroke-width:0.504;stroke-miterlimit:10;}
</style>
<g>
	<line class="st0" x1="-6.4" y1="636.8" x2="1009.8" y2="636.8"/>
	<line class="st0" x1="-6.4" y1="650.3" x2="1009.8" y2="650.3"/>
	<line class="st0" x1="384.5" y1="1006.9" x2="384.5" y2="-9.3"/>
	<line class="st0" x1="-6" y1="353.6" x2="1010.1" y2="353.6"/>
	<line class="st0" x1="-6" y1="428.6" x2="1010.1" y2="428.6"/>
	<line class="st0" x1="-6" y1="502.9" x2="1010.1" y2="502.9"/>
	<line class="st0" x1="-6" y1="544.8" x2="1010.1" y2="544.8"/>
	<line class="st0" x1="-6" y1="310" x2="1010.1" y2="310"/>
	<line class="st0" x1="434.2" y1="1006.9" x2="434.2" y2="-9.3"/>
	<line class="st0" x1="502.4" y1="1006.9" x2="502.4" y2="-9.3"/>
	<line class="st0" x1="520.1" y1="1006.9" x2="520.1" y2="-9.3"/>
	<line class="st0" x1="546" y1="1006.9" x2="546" y2="-9.3"/>
	<line class="st0" x1="584.2" y1="1006.9" x2="584.2" y2="-9.3"/>
	<line class="st0" x1="576.5" y1="1006.9" x2="576.5" y2="-9.3"/>
	<line class="st0" x1="427.2" y1="1006.9" x2="427.2" y2="-9.3"/>
	<line class="st0" x1="619.6" y1="1006.9" x2="619.6" y2="-9.3"/>
	<line class="st0" x1="-6.4" y1="688.9" x2="1009.8" y2="688.9"/>
	<line class="st1" x1="632.6" y1="-10.6" x2="250.2" y2="1010.6"/>
	<line class="st1" x1="676" y1="-10.6" x2="293.7" y2="1010.6"/>
	<line class="st1" x1="370.9" y1="-10.6" x2="753.2" y2="1010.6"/>
	<line class="st1" x1="327.8" y1="-10.6" x2="710.2" y2="1010.6"/>
	<line class="st1" x1="-6.4" y1="674.5" x2="1009.8" y2="674.5"/>
	<line class="st1" x1="-10.8" y1="483.1" x2="1010.8" y2="834.1"/>
	<g class="st2">
		<g>
			<defs>
				<rect id="SVGID_1_" x="437" y="478" width="135.1" height="163.6"/>
			</defs>
			<clipPath id="SVGID_2_">
				<use xlink:href="#SVGID_1_"  style="overflow:visible;"/>
			</clipPath>
			<path class="st3" d="M489.6,486.7l-51.3,137.1c-3.2,8.4,3.1,17.4,12.1,17.4h121.3l-57.9-154.5
				C509.5,475.6,493.7,475.6,489.6,486.7z"/>
		</g>
	</g>
	<circle class="st4" cx="597.8" cy="429" r="20.4"/>
	<circle class="st4" cx="405.6" cy="429" r="20.4"/>
	<polygon class="st5" points="501.9,339.6 376.1,674.5 627.3,674.5 	"/>
	<circle class="st5" cx="501.8" cy="427.4" r="117.4"/>
	<circle class="st5" cx="501.8" cy="428.4" r="74.7"/>
	<polygon class="st5" points="501.7,454.6 434.3,636.3 589.8,689.1 	"/>
	<path class="st6" d="M570.5,523.1c29.5-21.3,48.8-55.9,48.8-95c0-64.8-52.7-117.4-117.4-117.4c-64.8,0-117.4,52.7-117.4,117.4
		c0,39.1,19.3,73.7,48.8,95l-45,120.2c-2.7,7.1-1.7,15.1,2.7,21.3c4.3,6.2,11.5,10,19,10h104.4c6.2,0,7.6-8.6,1.8-10.6l-69.5-23.6
		c-6.8-2.3-10.4-9.9-7.9-16.6l46-122.8c-3-0.7-6-1.7-8.9-2.8c-0.6-0.2-1.3-0.5-1.9-0.7c-2.6-1.1-5.2-2.3-7.7-3.6
		c-0.8-0.4-1.5-0.9-2.3-1.3c-2-1.2-4-2.5-5.9-3.9c-0.8-0.6-1.7-1.2-2.5-1.9c-1.8-1.4-3.5-2.9-5.2-4.5
		c-14.3-13.6-23.3-32.8-23.3-54.2c0-39.6,30.8-72,69.8-74.6c1.7-0.1,3.4-0.3,5.1-0.3c1.7,0,3.4,0.1,5.1,0.3
		c39,2.7,69.8,35,69.8,74.6c0,21.3-9,40.5-23.3,54.2c-1.7,1.6-3.4,3.1-5.2,4.5c-0.8,0.6-1.7,1.3-2.5,1.9c-1.9,1.4-3.9,2.7-5.9,3.8
		c-0.8,0.4-1.5,0.9-2.3,1.3c-2.5,1.3-5,2.6-7.7,3.6c-0.6,0.3-1.3,0.5-1.9,0.7c-2.9,1.1-5.8,2-8.9,2.8c0,0,0,0,0,0l15,40l45.3,120.9
		c2.9,7.7,10.2,12.7,18.3,12.7c14.3,0,24.2-14.3,19.2-27.7L570.5,523.1z"/>
</g>
</svg>
